<svg xmlns="http://www.w3.org/2000/svg" viewBox="0 0 151.32 162.55"><path d="M1226.56,355.08a31.64,31.64,0,0,1-5.7,9.25,20.87,20.87,0,0,1-8.8,5.84,14.48,14.48,0,0,1-10.57-.32,18.76,18.76,0,0,1-10-9.94,33.78,33.78,0,0,1-3.22-15.12,39.58,39.58,0,0,1,2.75-14.27,31.64,31.64,0,0,1,5.7-9.25,20.86,20.86,0,0,1,8.8-5.85,14.43,14.43,0,0,1,10.57.33,18.62,18.62,0,0,1,10.06,9.95,34.11,34.11,0,0,1,3.2,15.06A39.43,39.43,0,0,1,1226.56,355.08Zm-47.09,30.06a22,22,0,0,1-8.62,10.66,13,13,0,0,1-12.5.93,20.27,20.27,0,0,1-10.4-9.89,36.65,36.65,0,0,1-1.69-29.79,22.26,22.26,0,0,1,8.64-10.7,13,13,0,0,1,12.52-1,20.27,20.27,0,0,1,10.4,9.89,36.83,36.83,0,0,1,1.65,29.87Zm35.42,11.66q10.3,4.2,18.82,17.6a84,84,0,0,1,11.6,28.87q3.07,15.48-1,25.53a14.67,14.67,0,0,1-4.2,6.08,9.78,9.78,0,0,1-5.85,2.21,23.93,23.93,0,0,1-6.35-.54,44.15,44.15,0,0,1-6.84-2.23q-5.94-2.42-14.79-10.6t-14.36-10.43q-5.78-2.35-18.42-3t-19.11-3.24q-16-6.51-10.81-19.28,3.06-7.51,11.71-14.75a81.06,81.06,0,0,1,19-11.87,77.56,77.56,0,0,1,21.59-6.1Q1207.1,393.64,1214.89,396.8Zm28.4-9.94a14.46,14.46,0,0,1-7.79-7.15,20.87,20.87,0,0,1-2.22-10.33,31.59,31.59,0,0,1,2.38-10.6,39.16,39.16,0,0,1,8-12.18,34.06,34.06,0,0,1,12.81-8.55,18.64,18.64,0,0,1,14.15-.1,14.45,14.45,0,0,1,7.8,7.15,20.73,20.73,0,0,1,2.21,10.33,31.82,31.82,0,0,1-2.37,10.6,39.56,39.56,0,0,1-8,12.13,33.73,33.73,0,0,1-12.87,8.58A18.73,18.73,0,0,1,1243.29,386.86Zm41.48,6.27a13,13,0,0,1,8.29,9.44,22.28,22.28,0,0,1-1.3,13.69,34.82,34.82,0,0,1-8.46,12.05,35.46,35.46,0,0,1-13.54,8.1,20.25,20.25,0,0,1-14.35-.19,13,13,0,0,1-8.31-9.39,22,22,0,0,1,1.28-13.65,36.81,36.81,0,0,1,22-20.23A20.31,20.31,0,0,1,1284.77,393.13Z" transform="translate(-1142.29 -314.57)" style="fill:#00b1b2"/></svg>